<?xml version="1.0" standalone="no"?>
<!DOCTYPE svg PUBLIC "-//W3C//DTD SVG 20010904//EN"
 "http://www.w3.org/TR/2001/REC-SVG-20010904/DTD/svg10.dtd">
<svg version="1.0" xmlns="http://www.w3.org/2000/svg"
 width="512.000000pt" height="512.000000pt" viewBox="0 0 512.000000 512.000000"
 preserveAspectRatio="xMidYMid meet">
<metadata>
Created by potrace 1.14, written by Peter Selinger 2001-2017
</metadata>
<g transform="translate(0.000000,512.000000) scale(0.100000,-0.100000)"
fill="#000000" stroke="none">
<path d="M335 4886 c-45 -20 -133 -114 -144 -153 -15 -53 3 -125 44 -171 15
-18 65 -54 92 -66 1 -1 -5 -23 -12 -51 -35 -137 45 -245 181 -245 52 0 120 26
143 54 13 15 16 13 38 -31 14 -26 38 -62 54 -78 21 -23 27 -37 24 -55 -18 -86
-22 -112 -19 -157 9 -146 110 -295 242 -360 47 -23 69 -27 137 -27 66 0 130 7
130 14 0 1 7 3 16 5 8 1 44 14 79 29 37 14 67 21 70 16 22 -35 99 -115 141
-146 l50 -36 -48 -23 c-49 -23 -106 -72 -134 -115 l-16 -24 -28 22 c-90 71
-244 38 -294 -64 -64 -127 42 -284 192 -284 37 0 93 24 105 46 8 15 13 13 35
-22 14 -21 37 -51 52 -67 28 -29 110 -74 147 -81 13 -3 25 -5 27 -5 2 -1 -15
-22 -39 -47 -62 -67 -92 -140 -97 -238 -9 -141 36 -267 132 -374 92 -101 216
-156 333 -146 76 7 220 60 257 95 15 14 35 10 35 -7 0 -22 46 -120 80 -168 26
-38 27 -43 13 -61 -58 -76 -75 -196 -42 -294 38 -113 145 -212 244 -227 36 -5
49 -2 84 21 22 15 41 30 41 33 0 3 -17 32 -39 66 -146 232 -189 422 -150 675
11 75 45 200 57 213 4 3 39 -2 77 -12 111 -29 106 -25 89 -73 -46 -126 -62
-330 -35 -441 30 -125 125 -288 265 -456 42 -49 208 -211 213 -207 9 10 13 61
13 172 0 129 -1 146 -20 244 -6 35 -8 67 -3 71 4 4 45 16 91 27 74 19 82 19
83 4 0 -9 2 -23 4 -31 3 -8 11 -49 19 -90 16 -88 14 -373 -4 -460 -6 -30 -13
-68 -15 -85 -3 -16 -12 -55 -20 -85 -9 -30 -18 -64 -20 -75 -3 -11 -20 -67
-40 -124 -19 -58 -34 -106 -32 -107 1 -1 95 56 209 126 114 71 207 126 207
122 -1 -4 -1 -107 0 -230 1 -186 3 -222 15 -215 14 8 139 121 260 235 39 36
73 65 75 62 4 -4 6 -19 17 -119 3 -33 7 -71 9 -85 8 -77 18 -177 18 -187 0 -7
1 -12 3 -10 1 1 59 79 128 172 70 94 135 180 145 192 l17 23 23 -43 c12 -23
31 -58 43 -77 11 -19 32 -57 47 -83 44 -82 48 -88 58 -98 8 -8 105 240 118
298 2 10 11 38 20 63 30 83 113 364 143 483 28 111 29 117 11 118 -10 1 -22 2
-26 3 -5 1 -24 6 -43 10 -81 20 -161 91 -201 180 -36 79 -35 187 3 261 26 50
80 107 128 137 58 35 147 51 209 37 l33 -7 -5 61 c-12 140 -79 334 -151 440
-14 21 -26 40 -26 42 0 23 -203 223 -272 268 -68 45 -164 96 -235 124 -80 33
-248 71 -316 73 -16 0 -18 10 -16 95 l2 95 56 -6 c144 -15 359 -81 479 -146
111 -61 218 -139 308 -225 35 -34 46 -32 108 25 132 120 94 343 -72 425 -49
25 -125 21 -182 -7 -29 -14 -53 -26 -54 -26 -2 0 -6 37 -9 83 -16 223 -164
432 -372 526 -129 58 -328 68 -417 21 -14 -8 -19 -2 -29 28 -17 51 -51 104
-90 136 -37 31 -130 80 -174 91 -68 16 -84 18 -186 17 -87 0 -120 -5 -185 -27
-122 -41 -217 -109 -245 -178 -13 -31 -1 -33 -158 23 l-105 37 -16 82 c-27
130 -68 208 -164 309 -113 119 -248 178 -426 186 -153 7 -314 -59 -436 -179
-40 -38 -73 -76 -75 -83 -6 -19 -132 58 -135 83 -14 101 -41 153 -110 214
-125 109 -321 98 -437 -24 l-45 -48 -46 43 c-39 36 -45 46 -39 69 20 73 -7
162 -64 213 -50 45 -147 61 -208 34z m3103 -1788 c3 -24 6 -65 6 -91 l1 -49
-65 -24 c-136 -51 -259 -124 -360 -212 l-45 -39 -57 71 c-32 39 -58 73 -57 76
2 22 198 160 305 214 74 37 256 107 263 100 2 -2 6 -23 9 -46z m477 -891 c22
-6 45 -11 51 -13 22 -4 98 -57 126 -88 120 -130 133 -314 33 -462 -69 -100
-183 -157 -307 -153 -235 9 -396 220 -342 450 37 160 182 276 344 277 30 0 73
-5 95 -11z m429 -698 c4 -28 24 -132 51 -274 3 -16 14 -79 25 -138 11 -60 22
-117 25 -128 6 -17 3 -19 -22 -15 -15 3 -57 8 -92 11 -35 3 -77 8 -94 10 -17
2 -63 7 -102 10 -115 10 -115 -7 -9 198 51 100 117 230 146 288 55 109 60 111
72 38z"/>
<path d="M2714 4516 c-74 -32 -113 -138 -79 -210 54 -114 211 -128 278 -24 87
135 -51 298 -199 234z"/>
<path d="M405 4076 c-86 -37 -88 -160 -4 -203 43 -23 86 -16 125 20 29 26 35
39 36 73 1 88 -79 143 -157 110z"/>
<path d="M1799 1765 c-105 -54 -145 -180 -88 -281 31 -56 37 -63 88 -86 113
-52 245 3 284 117 60 173 -122 333 -284 250z"/>
</g>
</svg>
